<mxfile host="app.diagrams.net" agent="Mozilla/5.0 (Windows NT 10.0; Win64; x64) AppleWebKit/537.36 (KHTML, like Gecko) Chrome/99.0.4844.84 Safari/537.36 HBPC/12.1.3.306" version="24.7.8">
  <diagram name="第 1 页" id="rwZv39C4w_sRKw7Vsx9e">
    <mxGraphModel dx="1195" dy="714" grid="0" gridSize="10" guides="1" tooltips="1" connect="1" arrows="1" fold="1" page="1" pageScale="1" pageWidth="2336" pageHeight="1654" math="0" shadow="0">
      <root>
        <mxCell id="0" />
        <mxCell id="1" parent="0" />
        <mxCell id="Ve-0OviqmU1EHWDldDCG-1" style="edgeStyle=orthogonalEdgeStyle;rounded=0;orthogonalLoop=1;jettySize=auto;html=1;entryX=0;entryY=0.5;entryDx=0;entryDy=0;" edge="1" parent="1" source="Ve-0OviqmU1EHWDldDCG-5" target="Ve-0OviqmU1EHWDldDCG-22">
          <mxGeometry relative="1" as="geometry" />
        </mxCell>
        <mxCell id="Ve-0OviqmU1EHWDldDCG-2" style="edgeStyle=orthogonalEdgeStyle;rounded=0;orthogonalLoop=1;jettySize=auto;html=1;entryX=0.5;entryY=1;entryDx=0;entryDy=0;" edge="1" parent="1" source="Ve-0OviqmU1EHWDldDCG-5" target="Ve-0OviqmU1EHWDldDCG-8">
          <mxGeometry relative="1" as="geometry" />
        </mxCell>
        <mxCell id="Ve-0OviqmU1EHWDldDCG-3" style="edgeStyle=orthogonalEdgeStyle;rounded=0;orthogonalLoop=1;jettySize=auto;html=1;entryX=1;entryY=0.5;entryDx=0;entryDy=0;" edge="1" parent="1" source="Ve-0OviqmU1EHWDldDCG-5" target="Ve-0OviqmU1EHWDldDCG-26">
          <mxGeometry relative="1" as="geometry" />
        </mxCell>
        <mxCell id="Ve-0OviqmU1EHWDldDCG-4" style="edgeStyle=orthogonalEdgeStyle;rounded=0;orthogonalLoop=1;jettySize=auto;html=1;entryX=0.5;entryY=0;entryDx=0;entryDy=0;" edge="1" parent="1" source="Ve-0OviqmU1EHWDldDCG-5" target="Ve-0OviqmU1EHWDldDCG-44">
          <mxGeometry relative="1" as="geometry" />
        </mxCell>
        <mxCell id="Ve-0OviqmU1EHWDldDCG-5" value="商家" style="shape=umlActor;verticalLabelPosition=bottom;verticalAlign=top;html=1;outlineConnect=0;" vertex="1" parent="1">
          <mxGeometry x="1033" y="455" width="30" height="60" as="geometry" />
        </mxCell>
        <mxCell id="Ve-0OviqmU1EHWDldDCG-6" style="edgeStyle=orthogonalEdgeStyle;rounded=0;orthogonalLoop=1;jettySize=auto;html=1;entryX=0.5;entryY=1;entryDx=0;entryDy=0;" edge="1" parent="1" source="Ve-0OviqmU1EHWDldDCG-8" target="Ve-0OviqmU1EHWDldDCG-12">
          <mxGeometry relative="1" as="geometry" />
        </mxCell>
        <mxCell id="Ve-0OviqmU1EHWDldDCG-7" style="edgeStyle=orthogonalEdgeStyle;rounded=0;orthogonalLoop=1;jettySize=auto;html=1;entryX=0.5;entryY=1;entryDx=0;entryDy=0;" edge="1" parent="1" source="Ve-0OviqmU1EHWDldDCG-8" target="Ve-0OviqmU1EHWDldDCG-16">
          <mxGeometry relative="1" as="geometry" />
        </mxCell>
        <mxCell id="Ve-0OviqmU1EHWDldDCG-8" value="用户管理" style="ellipse;whiteSpace=wrap;html=1;" vertex="1" parent="1">
          <mxGeometry x="1000" y="343" width="96" height="46" as="geometry" />
        </mxCell>
        <mxCell id="Ve-0OviqmU1EHWDldDCG-9" style="edgeStyle=orthogonalEdgeStyle;rounded=0;orthogonalLoop=1;jettySize=auto;html=1;entryX=0.5;entryY=1;entryDx=0;entryDy=0;" edge="1" parent="1" source="Ve-0OviqmU1EHWDldDCG-12" target="Ve-0OviqmU1EHWDldDCG-35">
          <mxGeometry relative="1" as="geometry" />
        </mxCell>
        <mxCell id="Ve-0OviqmU1EHWDldDCG-10" style="edgeStyle=orthogonalEdgeStyle;rounded=0;orthogonalLoop=1;jettySize=auto;html=1;entryX=0.5;entryY=1;entryDx=0;entryDy=0;" edge="1" parent="1" source="Ve-0OviqmU1EHWDldDCG-12" target="Ve-0OviqmU1EHWDldDCG-36">
          <mxGeometry relative="1" as="geometry" />
        </mxCell>
        <mxCell id="Ve-0OviqmU1EHWDldDCG-11" style="edgeStyle=orthogonalEdgeStyle;rounded=0;orthogonalLoop=1;jettySize=auto;html=1;entryX=0.5;entryY=1;entryDx=0;entryDy=0;" edge="1" parent="1" source="Ve-0OviqmU1EHWDldDCG-12" target="Ve-0OviqmU1EHWDldDCG-37">
          <mxGeometry relative="1" as="geometry" />
        </mxCell>
        <mxCell id="Ve-0OviqmU1EHWDldDCG-12" value="学生&lt;span style=&quot;color: rgba(0, 0, 0, 0); font-family: monospace; font-size: 0px; text-align: start; white-space: nowrap;&quot;&gt;%3CmxGraphModel%3E%3Croot%3E%3CmxCell%20id%3D%220%22%2F%3E%3CmxCell%20id%3D%221%22%20parent%3D%220%22%2F%3E%3CmxCell%20id%3D%222%22%20value%3D%22%E7%94%A8%E6%88%B7%E7%AE%A1%E7%90%86%22%20style%3D%22ellipse%3BwhiteSpace%3Dwrap%3Bhtml%3D1%3B%22%20vertex%3D%221%22%20parent%3D%221%22%3E%3CmxGeometry%20x%3D%22381%22%20y%3D%22262%22%20width%3D%2296%22%20height%3D%2246%22%20as%3D%22geometry%22%2F%3E%3C%2FmxCell%3E%3C%2Froot%3E%3C%2FmxGraphModel%3E&lt;/span&gt;管理" style="ellipse;whiteSpace=wrap;html=1;" vertex="1" parent="1">
          <mxGeometry x="921" y="246" width="96" height="46" as="geometry" />
        </mxCell>
        <mxCell id="Ve-0OviqmU1EHWDldDCG-13" style="edgeStyle=orthogonalEdgeStyle;rounded=0;orthogonalLoop=1;jettySize=auto;html=1;entryX=0.5;entryY=1;entryDx=0;entryDy=0;" edge="1" parent="1" source="Ve-0OviqmU1EHWDldDCG-16" target="Ve-0OviqmU1EHWDldDCG-38">
          <mxGeometry relative="1" as="geometry" />
        </mxCell>
        <mxCell id="Ve-0OviqmU1EHWDldDCG-14" style="edgeStyle=orthogonalEdgeStyle;rounded=0;orthogonalLoop=1;jettySize=auto;html=1;entryX=0.5;entryY=1;entryDx=0;entryDy=0;" edge="1" parent="1" source="Ve-0OviqmU1EHWDldDCG-16" target="Ve-0OviqmU1EHWDldDCG-39">
          <mxGeometry relative="1" as="geometry" />
        </mxCell>
        <mxCell id="Ve-0OviqmU1EHWDldDCG-15" style="edgeStyle=orthogonalEdgeStyle;rounded=0;orthogonalLoop=1;jettySize=auto;html=1;entryX=0.5;entryY=1;entryDx=0;entryDy=0;" edge="1" parent="1" source="Ve-0OviqmU1EHWDldDCG-16" target="Ve-0OviqmU1EHWDldDCG-40">
          <mxGeometry relative="1" as="geometry" />
        </mxCell>
        <mxCell id="Ve-0OviqmU1EHWDldDCG-16" value="商家管理" style="ellipse;whiteSpace=wrap;html=1;" vertex="1" parent="1">
          <mxGeometry x="1086" y="246" width="96" height="46" as="geometry" />
        </mxCell>
        <mxCell id="Ve-0OviqmU1EHWDldDCG-17" style="edgeStyle=orthogonalEdgeStyle;rounded=0;orthogonalLoop=1;jettySize=auto;html=1;exitX=1;exitY=0.5;exitDx=0;exitDy=0;entryX=0;entryY=0.5;entryDx=0;entryDy=0;" edge="1" parent="1" source="Ve-0OviqmU1EHWDldDCG-22" target="Ve-0OviqmU1EHWDldDCG-30">
          <mxGeometry relative="1" as="geometry" />
        </mxCell>
        <mxCell id="Ve-0OviqmU1EHWDldDCG-18" style="edgeStyle=orthogonalEdgeStyle;rounded=0;orthogonalLoop=1;jettySize=auto;html=1;entryX=0;entryY=0.5;entryDx=0;entryDy=0;" edge="1" parent="1" source="Ve-0OviqmU1EHWDldDCG-22" target="Ve-0OviqmU1EHWDldDCG-31">
          <mxGeometry relative="1" as="geometry" />
        </mxCell>
        <mxCell id="Ve-0OviqmU1EHWDldDCG-19" style="edgeStyle=orthogonalEdgeStyle;rounded=0;orthogonalLoop=1;jettySize=auto;html=1;entryX=0;entryY=0.5;entryDx=0;entryDy=0;" edge="1" parent="1" source="Ve-0OviqmU1EHWDldDCG-22" target="Ve-0OviqmU1EHWDldDCG-34">
          <mxGeometry relative="1" as="geometry" />
        </mxCell>
        <mxCell id="Ve-0OviqmU1EHWDldDCG-20" style="edgeStyle=orthogonalEdgeStyle;rounded=0;orthogonalLoop=1;jettySize=auto;html=1;entryX=0;entryY=0.5;entryDx=0;entryDy=0;" edge="1" parent="1" source="Ve-0OviqmU1EHWDldDCG-22" target="Ve-0OviqmU1EHWDldDCG-32">
          <mxGeometry relative="1" as="geometry">
            <Array as="points">
              <mxPoint x="1316" y="485" />
              <mxPoint x="1316" y="542" />
            </Array>
          </mxGeometry>
        </mxCell>
        <mxCell id="Ve-0OviqmU1EHWDldDCG-21" style="edgeStyle=orthogonalEdgeStyle;rounded=0;orthogonalLoop=1;jettySize=auto;html=1;entryX=0;entryY=0.5;entryDx=0;entryDy=0;" edge="1" parent="1" source="Ve-0OviqmU1EHWDldDCG-22" target="Ve-0OviqmU1EHWDldDCG-33">
          <mxGeometry relative="1" as="geometry" />
        </mxCell>
        <mxCell id="Ve-0OviqmU1EHWDldDCG-22" value="校园卡管理" style="ellipse;whiteSpace=wrap;html=1;" vertex="1" parent="1">
          <mxGeometry x="1179" y="462" width="96" height="46" as="geometry" />
        </mxCell>
        <mxCell id="Ve-0OviqmU1EHWDldDCG-23" style="edgeStyle=orthogonalEdgeStyle;rounded=0;orthogonalLoop=1;jettySize=auto;html=1;entryX=1;entryY=0.5;entryDx=0;entryDy=0;" edge="1" parent="1" source="Ve-0OviqmU1EHWDldDCG-26" target="Ve-0OviqmU1EHWDldDCG-27">
          <mxGeometry relative="1" as="geometry" />
        </mxCell>
        <mxCell id="Ve-0OviqmU1EHWDldDCG-24" style="edgeStyle=orthogonalEdgeStyle;rounded=0;orthogonalLoop=1;jettySize=auto;html=1;entryX=1;entryY=0.5;entryDx=0;entryDy=0;" edge="1" parent="1" source="Ve-0OviqmU1EHWDldDCG-26" target="Ve-0OviqmU1EHWDldDCG-28">
          <mxGeometry relative="1" as="geometry" />
        </mxCell>
        <mxCell id="Ve-0OviqmU1EHWDldDCG-25" style="edgeStyle=orthogonalEdgeStyle;rounded=0;orthogonalLoop=1;jettySize=auto;html=1;entryX=1;entryY=0.5;entryDx=0;entryDy=0;" edge="1" parent="1" source="Ve-0OviqmU1EHWDldDCG-26" target="Ve-0OviqmU1EHWDldDCG-29">
          <mxGeometry relative="1" as="geometry" />
        </mxCell>
        <mxCell id="Ve-0OviqmU1EHWDldDCG-26" value="账单管理" style="ellipse;whiteSpace=wrap;html=1;" vertex="1" parent="1">
          <mxGeometry x="858" y="462" width="96" height="46" as="geometry" />
        </mxCell>
        <mxCell id="Ve-0OviqmU1EHWDldDCG-27" value="消费账单查询" style="ellipse;whiteSpace=wrap;html=1;" vertex="1" parent="1">
          <mxGeometry x="683" y="403" width="96" height="46" as="geometry" />
        </mxCell>
        <mxCell id="Ve-0OviqmU1EHWDldDCG-28" value="充值账单查询" style="ellipse;whiteSpace=wrap;html=1;" vertex="1" parent="1">
          <mxGeometry x="683" y="462" width="96" height="46" as="geometry" />
        </mxCell>
        <mxCell id="Ve-0OviqmU1EHWDldDCG-29" value="结算单查询" style="ellipse;whiteSpace=wrap;html=1;" vertex="1" parent="1">
          <mxGeometry x="683" y="521" width="96" height="46" as="geometry" />
        </mxCell>
        <mxCell id="Ve-0OviqmU1EHWDldDCG-30" value="校园卡信息查询" style="ellipse;whiteSpace=wrap;html=1;" vertex="1" parent="1">
          <mxGeometry x="1358" y="347" width="96" height="46" as="geometry" />
        </mxCell>
        <mxCell id="Ve-0OviqmU1EHWDldDCG-31" value="校园卡充值" style="ellipse;whiteSpace=wrap;html=1;" vertex="1" parent="1">
          <mxGeometry x="1358" y="407" width="96" height="46" as="geometry" />
        </mxCell>
        <mxCell id="Ve-0OviqmU1EHWDldDCG-32" value="解锁校园卡" style="ellipse;whiteSpace=wrap;html=1;" vertex="1" parent="1">
          <mxGeometry x="1361" y="519" width="96" height="46" as="geometry" />
        </mxCell>
        <mxCell id="Ve-0OviqmU1EHWDldDCG-33" value="注销校园卡" style="ellipse;whiteSpace=wrap;html=1;" vertex="1" parent="1">
          <mxGeometry x="1358" y="578" width="96" height="46" as="geometry" />
        </mxCell>
        <mxCell id="Ve-0OviqmU1EHWDldDCG-34" value="挂失校园卡" style="ellipse;whiteSpace=wrap;html=1;" vertex="1" parent="1">
          <mxGeometry x="1358" y="462" width="96" height="46" as="geometry" />
        </mxCell>
        <mxCell id="Ve-0OviqmU1EHWDldDCG-35" value="学生信息查询" style="ellipse;whiteSpace=wrap;html=1;" vertex="1" parent="1">
          <mxGeometry x="751" y="140" width="96" height="46" as="geometry" />
        </mxCell>
        <mxCell id="Ve-0OviqmU1EHWDldDCG-36" value="添加学生用户" style="ellipse;whiteSpace=wrap;html=1;" vertex="1" parent="1">
          <mxGeometry x="869" y="144" width="96" height="46" as="geometry" />
        </mxCell>
        <mxCell id="Ve-0OviqmU1EHWDldDCG-37" value="删除学生用户" style="ellipse;whiteSpace=wrap;html=1;" vertex="1" parent="1">
          <mxGeometry x="992" y="144" width="96" height="46" as="geometry" />
        </mxCell>
        <mxCell id="Ve-0OviqmU1EHWDldDCG-38" value="商家信息查询" style="ellipse;whiteSpace=wrap;html=1;" vertex="1" parent="1">
          <mxGeometry x="1120" y="144" width="96" height="46" as="geometry" />
        </mxCell>
        <mxCell id="Ve-0OviqmU1EHWDldDCG-39" value="添加商家用户" style="ellipse;whiteSpace=wrap;html=1;" vertex="1" parent="1">
          <mxGeometry x="1232" y="144" width="96" height="46" as="geometry" />
        </mxCell>
        <mxCell id="Ve-0OviqmU1EHWDldDCG-40" value="删除商家用户" style="ellipse;whiteSpace=wrap;html=1;" vertex="1" parent="1">
          <mxGeometry x="1358" y="144" width="96" height="46" as="geometry" />
        </mxCell>
        <mxCell id="Ve-0OviqmU1EHWDldDCG-41" style="edgeStyle=orthogonalEdgeStyle;rounded=0;orthogonalLoop=1;jettySize=auto;html=1;exitX=0.5;exitY=1;exitDx=0;exitDy=0;" edge="1" parent="1" source="Ve-0OviqmU1EHWDldDCG-34" target="Ve-0OviqmU1EHWDldDCG-34">
          <mxGeometry relative="1" as="geometry" />
        </mxCell>
        <mxCell id="Ve-0OviqmU1EHWDldDCG-44" value="消费功能" style="ellipse;whiteSpace=wrap;html=1;" vertex="1" parent="1">
          <mxGeometry x="1000" y="591" width="96" height="46" as="geometry" />
        </mxCell>
      </root>
    </mxGraphModel>
  </diagram>
</mxfile>
